
        <svg xmlns="http://www.w3.org/2000/svg" width="321" height="57" viewBox="7.99497802734375 23.9994189453125 321 57">
          <g fill="#ffffff"><path d="M23.998 79.999L23.998 47.989L35.995 47.989L35.995 40.003L23.998 40.003L23.998 31.983L40.005 31.983L40.005 23.999L19.988 23.999L15.978 27.976L15.978 40.006L7.995 40.006L7.995 47.992L15.978 47.992L15.978 79.999ZM83.995 79.999L88.005 76.023L88.005 43.979L83.995 40.003L59.968 40.003L55.995 43.979L55.995 76.023L59.968 79.999ZM63.978 72.016L63.978 47.992L79.985 47.992L79.985 72.016ZM103.995 80.002L111.978 80.002L111.978 47.992L127.985 47.992L127.985 79.999L136.005 79.999L136.005 43.979L131.995 40.003L107.968 40.003L103.995 43.979ZM165.993 79.996L182 79.996L182 72.013L170.003 72.013L170.003 47.989L182 47.989L182 40.003L170.003 40.003L170.003 23.999L161.983 23.999L161.983 40.006L154 40.006L154 47.992L161.983 47.992L161.983 76.023L165.993 79.999ZM232.005 79.999L232.005 72.016L207.978 72.016L207.978 63.996L227.995 63.996L232.005 60.020L232.005 43.979L227.995 40.003L203.968 40.003L199.995 43.979L199.995 76.023L203.968 79.999ZM207.978 56.009L207.978 47.989L223.985 47.989L223.985 56.009ZM257.983 79.999L257.983 47.989L269.980 47.989L269.980 56.009L278 56.009L278 40.003L253.973 40.003L250 43.979L250 79.999ZM323.995 79.999L328.005 76.023L328.005 43.979L323.995 40.003L299.968 40.003L295.995 43.979L295.995 76.023L299.968 79.999ZM303.978 72.016L303.978 47.992L319.985 47.992L319.985 72.016Z"/></g>
        </svg>
      